<svg xmlns="http://www.w3.org/2000/svg" viewBox="0 0 800 800" version="1.1" xml:space="preserve">
    <path d="M319.033,117.185c0,-27.432 -22.272,-49.704 -49.704,-49.704l-193.083,0c-27.432,0 -49.704,22.272 -49.704,49.704l0,99.408c0,27.432 22.272,49.704 49.704,49.704l193.083,0c27.432,0 49.704,-22.272 49.704,-49.704l0,-99.408Z" style="fill:#ebebeb;"/>
    <path d="M281.921,169.017c0,-13.106 -10.64,-23.747 -23.747,-23.747l-95.163,0c-13.106,0 -23.747,10.641 -23.747,23.747l0,47.494c0,13.107 10.641,23.748 23.747,23.748l95.163,0c13.107,0 23.747,-10.641 23.747,-23.748l0,-47.494Z"
          style="fill:#58c6ff;stroke:#000;stroke-width:1px;"/>
    <path d="M738.886,158.915c0,-16.927 -13.742,-30.668 -30.668,-30.668l-105.918,0c-16.927,0 -30.668,13.741 -30.668,30.668l0,61.335c0,16.926 13.741,30.668 30.668,30.668l105.918,0c16.926,0 30.668,-13.742 30.668,-30.668l0,-61.335Z"
          style="fill:#ebebeb;"/>
    <path d="M726.587,165.835c0,-13.106 -10.64,-23.747 -23.747,-23.747l-95.163,0c-13.106,0 -23.747,10.641 -23.747,23.747l0,47.495c0,13.106 10.641,23.747 23.747,23.747l95.163,0c13.107,0 23.747,-10.641 23.747,-23.747l0,-47.495Z"
          style="fill:#58c6ff;stroke:#000;stroke-width:1px;"/>
    <path d="M319.033,342.893c0,-27.432 -22.272,-49.703 -49.704,-49.703l-193.083,0c-27.432,0 -49.704,22.271 -49.704,49.703l0,99.408c0,27.432 22.272,49.704 49.704,49.704l193.083,0c27.432,0 49.704,-22.272 49.704,-49.704l0,-99.408Z"
          style="fill:#ebebeb;"/>
    <path d="M281.921,394.725c0,-13.106 -10.64,-23.747 -23.747,-23.747l-95.163,0c-13.106,0 -23.747,10.641 -23.747,23.747l0,47.495c0,13.106 10.641,23.747 23.747,23.747l95.163,0c13.107,0 23.747,-10.641 23.747,-23.747l0,-47.495Z"
          style="fill:#58ff58;stroke:#000;stroke-width:1px;"/>
    <path d="M738.886,392.36c0,-16.926 -13.742,-30.668 -30.668,-30.668l-105.918,0c-16.927,0 -30.668,13.742 -30.668,30.668l0,61.336c0,16.926 13.741,30.668 30.668,30.668l105.918,0c16.926,0 30.668,-13.742 30.668,-30.668l0,-61.336Z"
          style="fill:#ebebeb;"/>
    <path d="M729.587,399.281c0,-13.106 -10.64,-23.747 -23.747,-23.747l-95.163,0c-13.106,0 -23.747,10.641 -23.747,23.747l0,47.494c0,13.107 10.641,23.747 23.747,23.747l95.163,0c13.107,0 23.747,-10.64 23.747,-23.747l0,-47.494Z"
          style="fill:#58ff58;stroke:#000;stroke-width:1px;"/>
    <path d="M319.033,612.154c0,-27.432 -22.272,-49.704 -49.704,-49.704l-193.083,0c-27.432,0 -49.704,22.272 -49.704,49.704l0,99.408c0,27.432 22.272,49.703 49.704,49.703l193.083,0c27.432,0 49.704,-22.271 49.704,-49.703l0,-99.408Z"
          style="fill:#ebebeb;"/>
    <path d="M281.921,663.986c0,-13.107 -10.64,-23.747 -23.747,-23.747l-95.163,0c-13.106,0 -23.747,10.64 -23.747,23.747l0,47.494c0,13.107 10.641,23.747 23.747,23.747l95.163,0c13.107,0 23.747,-10.64 23.747,-23.747l0,-47.494Z"
          style="fill:#ffb258;stroke:#000;stroke-width:1px;"/>
    <path d="M738.886,661.621c0,-16.926 -13.742,-30.668 -30.668,-30.668l-105.918,0c-16.927,0 -30.668,13.742 -30.668,30.668l0,61.335c0,16.927 13.741,30.668 30.668,30.668l105.918,0c16.926,0 30.668,-13.741 30.668,-30.668l0,-61.335Z"
          style="fill:#ebebeb;"/>
    <path d="M729.587,668.541c0,-13.106 -10.64,-23.747 -23.747,-23.747l-95.163,0c-13.106,0 -23.747,10.641 -23.747,23.747l0,47.495c0,13.106 10.641,23.747 23.747,23.747l95.163,0c13.107,0 23.747,-10.641 23.747,-23.747l0,-47.495Z"
          style="fill:#ffb258;stroke:#000;stroke-width:1px;"/>
    <path d="M564.336,183.687l15,7.5l-15,7.5c3.75,-3.75 3.75,-11.25 0,-15Z"/>
    <path d="M288.807,191.187l278.529,0" style="fill:none;stroke:#000;stroke-width:5px;"/>
    <path d="M662.759,343.839l-7.5,15l-7.5,-15c3.75,3.75 11.25,3.75 15,0Z"/>
    <path d="M655.259,271.974l0,74.865" style="fill:none;stroke:#000;stroke-width:5px;"/>
    <path d="M303.807,434.185l-15,-7.5l15,-7.5c-3.75,3.75 -3.75,11.25 0,15Z"/>
    <path d="M579.336,426.685l-278.529,0" style="fill:none;stroke:#000;stroke-width:5px;"/>
    <path d="M564.336,684.913l15,7.5l-15,7.5c3.75,-3.75 3.75,-11.25 0,-15Z"/>
    <path d="M288.807,692.413l278.529,0" style="fill:none;stroke:#000;stroke-width:5px;"/>
    <path d="M180.287,538.643l-7.5,15l-7.5,-15c3.75,3.75 11.25,3.75 15,0Z"/>
    <path d="M172.787,500.34l0,41.303" style="fill:none;stroke:#000;stroke-width:5px;"/>
    <text x="-302.881px" y="383.075px"
          style="font-family:sans-serif;font-size:104.172px;"
          transform="matrix(0.172791,0,0,0.172791,376.524,336.685)">Merge with git-subdir-back</text>
    <text x="208.268px" y="383.075px"
          style="font-family:sans-serif;font-size:104.172px;"
          transform="matrix(0.172791,0,0,0.172791,627.834,256.252)">Your commit</text>
    <text x="-63.133px" y="383.075px"
          style="font-family:sans-serif;font-size:104.172px;"
          transform="matrix(0.172791,0,0,0.172791,65.2844,467.837)">Your commit</text>
    <text x="-322.082px" y="383.075px"
          style="font-family:sans-serif;font-size:104.172px;"
          transform="matrix(0.172791,0,0,0.172791,376.573,104.555)">Extract with git-subdir-copy</text>
    <text transform="matrix(0.172791,0,0,0.172791,103.896,-31.0548)"
          style="font-family:sans-serif;font-size:104.172px;"
          y="383.075px" x="209.102px">Rootdir</text>
    <text x="126.319px" y="487.247px"
          style="font-family:sans-serif;font-size:104.172px;"
          transform="matrix(0.172791,0,0,0.172791,103.896,-31.0548)">Repository</text>
    <text x="149.512px" y="170.267px"
          style="font-family:sans-serif;font-size:18px;">Directory</text>
    <text x="232.348px" y="383.075px"
          style="font-family:sans-serif;font-size:104.172px;"
          transform="matrix(0.172791,0,0,0.172791,586.367,29.7105)">Subdir</text>
    <text x="126.319px" y="487.247px"
          style="font-family:sans-serif;font-size:104.172px;"
          transform="matrix(0.172791,0,0,0.172791,586.367,29.7105)">Repository</text>
    <text x="594.178px" y="167.085px"
          style="font-family:sans-serif;font-size:18px;">Directory</text>
    <text x="149.512px" y="395.975px"
          style="font-family:sans-serif;font-size:18px;">Directory</text>
    <text x="597.178px" y="400.53px"
          style="font-family:sans-serif;font-size:18px;">Directory</text>
    <text x="-322.082px" y="383.075px"
          style="font-family:sans-serif;font-size:104.172px;"
          transform="matrix(0.172791,0,0,0.172791,376.524,605.946)">Extract with git-subdir-copy</text>
    <text x="149.512px" y="665.235px"
          style="font-family:sans-serif;font-size:18px;">Directory</text>
    <text x="597.178px" y="669.791px"
          style="font-family:sans-serif;font-size:18px;">Directory</text>
</svg>
